<?xml version="1.0" encoding="UTF-8"?>
<!DOCTYPE svg PUBLIC "-//W3C//DTD SVG 1.1//EN" "http://www.w3.org/Graphics/SVG/1.1/DTD/svg11.dtd">
<!-- Creator: CorelDRAW -->
<svg xmlns="http://www.w3.org/2000/svg" xml:space="preserve" width="200px" height="100px" style="shape-rendering:geometricPrecision; text-rendering:geometricPrecision; image-rendering:optimizeQuality; fill-rule:evenodd; clip-rule:evenodd"
viewBox="0 0 49.8439 25.0259"
 xmlns:xlink="http://www.w3.org/1999/xlink">
 <defs>
  <style type="text/css">
   <![CDATA[
    .fil0 {fill:#03BBDD;fill-opacity:0.5}
   ]]>
  </style>
 </defs>
 <g id="Layer_x0020_1">
  <metadata id="CorelCorpID_0Corel-Layer"/>
  <path class="fil0" d="M18.1282 22.3915c-0.675166,0 -0.54425,-0.039255 -1.10916,-0.415944 -0.311968,-0.207972 -0.624174,-0.415525 -0.935883,-0.623915 -0.15443,-0.103239 -0.300689,-0.188265 -0.464544,-0.297999l-12.5337 -8.33278c0.114676,-0.156502 3.36332,-2.25379 3.61174,-2.41942l10.0173 -6.65506c0.166186,-0.110791 0.781991,-0.554452 0.928968,-0.596158l0.831887 0 0 -2.63433 -1.59447 0c-0.109755,0 -0.907468,0.581831 -1.05375,0.67935l-15.8266 10.4818 0 2.25302c0.181729,0.0961648 0.350924,0.222478 0.526854,0.339725 0.181769,0.121172 0.338151,0.225447 0.519919,0.34662l7.37607 4.89422c0.633659,0.422499 8.16888,5.39776 8.27232,5.48845l0.115872 0.126792 3.29286 0c0.0378801,-0.16248 0.248104,-0.530859 0.335102,-0.704816l2.28751 -4.54083c0.0730103,-0.147376 0.125576,-0.21664 0.197092,-0.357519 0.480864,-0.94742 0.905376,-1.8889 1.42017,-2.80857 0.252806,-0.451632 0.470681,-0.940008 0.705235,-1.40911l2.83074 -5.59216c0.238997,-0.477994 0.456115,-0.954375 0.7148,-1.39955 0.490986,-0.844819 0.914342,-1.93553 1.42113,-2.80761 0.263845,-0.454023 0.469645,-0.934647 0.706331,-1.40802 0.122408,-0.244836 0.224212,-0.448424 0.34662,-0.693279 0.119718,-0.239376 0.247805,-0.450855 0.404406,-0.670085 0.96645,0 0.64434,-0.0595401 1.6013,0.582389l0.922114 0.602993 12.7625 8.51993c-0.21112,0.0563718 -0.700791,0.443382 -0.908066,0.582409 -0.161264,0.10816 -0.299035,0.187547 -0.464544,0.298039 -0.16503,0.110173 -0.296026,0.197251 -0.45757,0.304954l-11.8266 7.86132c-0.147296,0.0985161 -0.810486,0.553675 -0.935883,0.589243l-0.797215 0 0 2.63433 1.52513 0c0.177345,0 2.9236,-1.89135 3.19579,-2.0728 0.356742,-0.237821 0.702027,-0.48447 1.06598,-0.701788 0.722411,-0.431247 1.42199,-0.945368 2.12296,-1.4126 0.710854,-0.47387 1.39556,-0.961827 2.12748,-1.40798 0.359532,-0.21919 0.687739,-0.457291 1.0406,-0.692542l5.31024 -3.52851c0.36276,-0.241787 0.694335,-0.46287 1.06066,-0.707108 0.18691,-0.12458 0.33307,-0.22202 0.519919,-0.3466l0.506051 -0.39518 0 -2.07972c0,-0.0961249 -0.175472,-0.175133 -0.256532,-0.228775 -0.110532,-0.0731498 -0.184598,-0.123026 -0.291145,-0.194083l-14.9115 -9.90639c-0.389003,-0.259342 -0.780636,-0.541898 -1.18953,-0.786196 -0.117586,-0.0702405 -0.15435,-0.134523 -0.30599,-0.149667l-3.53048 0c-0.0696427,0.298936 -2.65828,5.31658 -2.79603,5.5921l-8.0878 16.0716c-0.0831528,0.166286 -0.308401,0.563777 -0.34664,0.727851z"/>
 </g>
</svg>
